<mxfile host="65bd71144e">
    <diagram id="OCw8W2Hen-HrQna9CozS" name="Страница 1">
        <mxGraphModel dx="504" dy="1800" grid="1" gridSize="10" guides="1" tooltips="1" connect="1" arrows="1" fold="1" page="1" pageScale="1" pageWidth="827" pageHeight="1169" background="none" math="0" shadow="0">
            <root>
                <mxCell id="0"/>
                <mxCell id="1" parent="0"/>
                <mxCell id="2" value="Пользователь" style="swimlane;fontStyle=0;childLayout=stackLayout;horizontal=1;startSize=30;horizontalStack=0;resizeParent=1;resizeParentMax=0;resizeLast=0;collapsible=1;marginBottom=0;" parent="1" vertex="1">
                    <mxGeometry x="108" y="-1035" width="170" height="240" as="geometry"/>
                </mxCell>
                <mxCell id="3" value="ID пользователя" style="text;strokeColor=none;fillColor=none;align=left;verticalAlign=middle;spacingLeft=4;spacingRight=4;overflow=hidden;points=[[0,0.5],[1,0.5]];portConstraint=eastwest;rotatable=0;" parent="2" vertex="1">
                    <mxGeometry y="30" width="170" height="30" as="geometry"/>
                </mxCell>
                <mxCell id="4" value="Фамилия" style="text;strokeColor=none;fillColor=none;align=left;verticalAlign=middle;spacingLeft=4;spacingRight=4;overflow=hidden;points=[[0,0.5],[1,0.5]];portConstraint=eastwest;rotatable=0;" parent="2" vertex="1">
                    <mxGeometry y="60" width="170" height="30" as="geometry"/>
                </mxCell>
                <mxCell id="5" value="Имя" style="text;strokeColor=none;fillColor=none;align=left;verticalAlign=middle;spacingLeft=4;spacingRight=4;overflow=hidden;points=[[0,0.5],[1,0.5]];portConstraint=eastwest;rotatable=0;" parent="2" vertex="1">
                    <mxGeometry y="90" width="170" height="30" as="geometry"/>
                </mxCell>
                <mxCell id="6" value="Отчество" style="text;strokeColor=none;fillColor=none;align=left;verticalAlign=middle;spacingLeft=4;spacingRight=4;overflow=hidden;points=[[0,0.5],[1,0.5]];portConstraint=eastwest;rotatable=0;" vertex="1" parent="2">
                    <mxGeometry y="120" width="170" height="30" as="geometry"/>
                </mxCell>
                <mxCell id="7" value="Номер телефона" style="text;strokeColor=none;fillColor=none;align=left;verticalAlign=middle;spacingLeft=4;spacingRight=4;overflow=hidden;points=[[0,0.5],[1,0.5]];portConstraint=eastwest;rotatable=0;" vertex="1" parent="2">
                    <mxGeometry y="150" width="170" height="30" as="geometry"/>
                </mxCell>
                <mxCell id="8" value="(v2) ID приоритетного счёта" style="text;strokeColor=none;fillColor=none;align=left;verticalAlign=middle;spacingLeft=4;spacingRight=4;overflow=hidden;points=[[0,0.5],[1,0.5]];portConstraint=eastwest;rotatable=0;" vertex="1" parent="2">
                    <mxGeometry y="180" width="170" height="30" as="geometry"/>
                </mxCell>
                <mxCell id="9" value="(v2) Является админом" style="text;strokeColor=none;fillColor=none;align=left;verticalAlign=middle;spacingLeft=4;spacingRight=4;overflow=hidden;points=[[0,0.5],[1,0.5]];portConstraint=eastwest;rotatable=0;" vertex="1" parent="2">
                    <mxGeometry y="210" width="170" height="30" as="geometry"/>
                </mxCell>
                <mxCell id="18" value="Счёт" style="swimlane;fontStyle=0;childLayout=stackLayout;horizontal=1;startSize=30;horizontalStack=0;resizeParent=1;resizeParentMax=0;resizeLast=0;collapsible=1;marginBottom=0;" vertex="1" parent="1">
                    <mxGeometry x="358" y="-1100" width="180" height="150" as="geometry"/>
                </mxCell>
                <mxCell id="19" value="ID счёта  " style="text;strokeColor=none;fillColor=none;align=left;verticalAlign=middle;spacingLeft=4;spacingRight=4;overflow=hidden;points=[[0,0.5],[1,0.5]];portConstraint=eastwest;rotatable=0;" vertex="1" parent="18">
                    <mxGeometry y="30" width="180" height="30" as="geometry"/>
                </mxCell>
                <mxCell id="20" value="ID пользователя-владельца" style="text;strokeColor=none;fillColor=none;align=left;verticalAlign=middle;spacingLeft=4;spacingRight=4;overflow=hidden;points=[[0,0.5],[1,0.5]];portConstraint=eastwest;rotatable=0;" vertex="1" parent="18">
                    <mxGeometry y="60" width="180" height="30" as="geometry"/>
                </mxCell>
                <mxCell id="22" value="Текущая сумма на счёте" style="text;strokeColor=none;fillColor=none;align=left;verticalAlign=middle;spacingLeft=4;spacingRight=4;overflow=hidden;points=[[0,0.5],[1,0.5]];portConstraint=eastwest;rotatable=0;" vertex="1" parent="18">
                    <mxGeometry y="90" width="180" height="30" as="geometry"/>
                </mxCell>
                <mxCell id="163" value="Название" style="text;strokeColor=none;fillColor=none;align=left;verticalAlign=middle;spacingLeft=4;spacingRight=4;overflow=hidden;points=[[0,0.5],[1,0.5]];portConstraint=eastwest;rotatable=0;" vertex="1" parent="18">
                    <mxGeometry y="120" width="180" height="30" as="geometry"/>
                </mxCell>
                <mxCell id="23" value="" style="endArrow=ERzeroToMany;html=1;edgeStyle=elbowEdgeStyle;startArrow=ERone;startFill=0;endFill=0;" edge="1" parent="1" source="3" target="20">
                    <mxGeometry width="50" height="50" relative="1" as="geometry">
                        <mxPoint x="316" y="-925" as="sourcePoint"/>
                        <mxPoint x="366" y="-975" as="targetPoint"/>
                    </mxGeometry>
                </mxCell>
                <mxCell id="24" value="" style="endArrow=ERzeroToMany;html=1;edgeStyle=elbowEdgeStyle;startArrow=ERone;startFill=0;endFill=0;exitX=0;exitY=0.5;exitDx=0;exitDy=0;" edge="1" parent="1" source="8" target="19">
                    <mxGeometry width="50" height="50" relative="1" as="geometry">
                        <mxPoint x="336" y="-955" as="sourcePoint"/>
                        <mxPoint x="416" y="-925" as="targetPoint"/>
                        <Array as="points">
                            <mxPoint x="88" y="-995"/>
                            <mxPoint x="56" y="-1055"/>
                        </Array>
                    </mxGeometry>
                </mxCell>
                <mxCell id="35" value="(v2) Категория" style="swimlane;fontStyle=0;childLayout=stackLayout;horizontal=1;startSize=30;horizontalStack=0;resizeParent=1;resizeParentMax=0;resizeLast=0;collapsible=1;marginBottom=0;" vertex="1" parent="1">
                    <mxGeometry x="358" y="-707" width="180" height="120" as="geometry"/>
                </mxCell>
                <mxCell id="36" value="ID категории" style="text;strokeColor=none;fillColor=none;align=left;verticalAlign=middle;spacingLeft=4;spacingRight=4;overflow=hidden;points=[[0,0.5],[1,0.5]];portConstraint=eastwest;rotatable=0;" vertex="1" parent="35">
                    <mxGeometry y="30" width="180" height="30" as="geometry"/>
                </mxCell>
                <mxCell id="37" value="Название" style="text;strokeColor=none;fillColor=none;align=left;verticalAlign=middle;spacingLeft=4;spacingRight=4;overflow=hidden;points=[[0,0.5],[1,0.5]];portConstraint=eastwest;rotatable=0;" vertex="1" parent="35">
                    <mxGeometry y="60" width="180" height="30" as="geometry"/>
                </mxCell>
                <mxCell id="38" value="Процент кэшбека" style="text;strokeColor=none;fillColor=none;align=left;verticalAlign=middle;spacingLeft=4;spacingRight=4;overflow=hidden;points=[[0,0.5],[1,0.5]];portConstraint=eastwest;rotatable=0;" vertex="1" parent="35">
                    <mxGeometry y="90" width="180" height="30" as="geometry"/>
                </mxCell>
                <mxCell id="39" value="" style="endArrow=ERzeroToOne;html=1;startArrow=ERzeroToMany;startFill=0;endFill=0;exitX=0;exitY=0.5;exitDx=0;exitDy=0;entryX=1;entryY=0.5;entryDx=0;entryDy=0;edgeStyle=elbowEdgeStyle;" edge="1" parent="1" source="59" target="36">
                    <mxGeometry width="50" height="50" relative="1" as="geometry">
                        <mxPoint x="538" y="-980" as="sourcePoint"/>
                        <mxPoint x="686" y="-970" as="targetPoint"/>
                    </mxGeometry>
                </mxCell>
                <mxCell id="45" value="Перевод" style="swimlane;fontStyle=0;childLayout=stackLayout;horizontal=1;startSize=30;horizontalStack=0;resizeParent=1;resizeParentMax=0;resizeLast=0;collapsible=1;marginBottom=0;" vertex="1" parent="1">
                    <mxGeometry x="618" y="-1100" width="180" height="270" as="geometry"/>
                </mxCell>
                <mxCell id="50" value="ID перевода" style="text;strokeColor=none;fillColor=none;align=left;verticalAlign=middle;spacingLeft=4;spacingRight=4;overflow=hidden;points=[[0,0.5],[1,0.5]];portConstraint=eastwest;rotatable=0;" vertex="1" parent="45">
                    <mxGeometry y="30" width="180" height="30" as="geometry"/>
                </mxCell>
                <mxCell id="47" value="Статус перевода" style="text;strokeColor=none;fillColor=none;align=left;verticalAlign=middle;spacingLeft=4;spacingRight=4;overflow=hidden;points=[[0,0.5],[1,0.5]];portConstraint=eastwest;rotatable=0;" vertex="1" parent="45">
                    <mxGeometry y="60" width="180" height="30" as="geometry"/>
                </mxCell>
                <mxCell id="46" value="Дата и время создания" style="text;strokeColor=none;fillColor=none;align=left;verticalAlign=middle;spacingLeft=4;spacingRight=4;overflow=hidden;points=[[0,0.5],[1,0.5]];portConstraint=eastwest;rotatable=0;" vertex="1" parent="45">
                    <mxGeometry y="90" width="180" height="30" as="geometry"/>
                </mxCell>
                <mxCell id="48" value="ID счёта владельца" style="text;strokeColor=none;fillColor=none;align=left;verticalAlign=middle;spacingLeft=4;spacingRight=4;overflow=hidden;points=[[0,0.5],[1,0.5]];portConstraint=eastwest;rotatable=0;" vertex="1" parent="45">
                    <mxGeometry y="120" width="180" height="30" as="geometry"/>
                </mxCell>
                <mxCell id="51" value="ID чужого счёта " style="text;strokeColor=none;fillColor=none;align=left;verticalAlign=middle;spacingLeft=4;spacingRight=4;overflow=hidden;points=[[0,0.5],[1,0.5]];portConstraint=eastwest;rotatable=0;" vertex="1" parent="45">
                    <mxGeometry y="150" width="180" height="30" as="geometry"/>
                </mxCell>
                <mxCell id="56" value="Сумма перевода" style="text;strokeColor=none;fillColor=none;align=left;verticalAlign=middle;spacingLeft=4;spacingRight=4;overflow=hidden;points=[[0,0.5],[1,0.5]];portConstraint=eastwest;rotatable=0;" vertex="1" parent="45">
                    <mxGeometry y="180" width="180" height="30" as="geometry"/>
                </mxCell>
                <mxCell id="55" value="Сумма кэшбека" style="text;strokeColor=none;fillColor=none;align=left;verticalAlign=middle;spacingLeft=4;spacingRight=4;overflow=hidden;points=[[0,0.5],[1,0.5]];portConstraint=eastwest;rotatable=0;" vertex="1" parent="45">
                    <mxGeometry y="210" width="180" height="30" as="geometry"/>
                </mxCell>
                <mxCell id="59" value="(v2) ID категории" style="text;strokeColor=none;fillColor=none;align=left;verticalAlign=middle;spacingLeft=4;spacingRight=4;overflow=hidden;points=[[0,0.5],[1,0.5]];portConstraint=eastwest;rotatable=0;" vertex="1" parent="45">
                    <mxGeometry y="240" width="180" height="30" as="geometry"/>
                </mxCell>
                <mxCell id="57" value="" style="endArrow=ERone;html=1;edgeStyle=elbowEdgeStyle;startArrow=ERoneToMany;startFill=0;endFill=0;exitX=0;exitY=0.5;exitDx=0;exitDy=0;entryX=1.001;entryY=0.164;entryDx=0;entryDy=0;entryPerimeter=0;" edge="1" parent="1">
                    <mxGeometry width="50" height="50" relative="1" as="geometry">
                        <mxPoint x="618" y="-965" as="sourcePoint"/>
                        <mxPoint x="538.18" y="-1065.08" as="targetPoint"/>
                        <Array as="points">
                            <mxPoint x="580" y="-1010"/>
                        </Array>
                    </mxGeometry>
                </mxCell>
                <mxCell id="58" value="" style="endArrow=ERone;html=1;edgeStyle=elbowEdgeStyle;startArrow=ERoneToMany;startFill=0;endFill=0;exitX=0;exitY=0.5;exitDx=0;exitDy=0;" edge="1" parent="1" source="51" target="19">
                    <mxGeometry width="50" height="50" relative="1" as="geometry">
                        <mxPoint x="576" y="-1270" as="sourcePoint"/>
                        <mxPoint x="548" y="-1045" as="targetPoint"/>
                        <Array as="points">
                            <mxPoint x="570" y="-990"/>
                            <mxPoint x="558" y="-1000"/>
                        </Array>
                    </mxGeometry>
                </mxCell>
                <mxCell id="60" value="User" style="swimlane;fontStyle=0;childLayout=stackLayout;horizontal=1;startSize=30;horizontalStack=0;resizeParent=1;resizeParentMax=0;resizeLast=0;collapsible=1;marginBottom=0;" vertex="1" parent="1">
                    <mxGeometry x="60" y="-423" width="240" height="240" as="geometry"/>
                </mxCell>
                <mxCell id="61" value="id: UUID NOT NULL" style="text;strokeColor=none;fillColor=none;align=left;verticalAlign=middle;spacingLeft=4;spacingRight=4;overflow=hidden;points=[[0,0.5],[1,0.5]];portConstraint=eastwest;rotatable=0;" vertex="1" parent="60">
                    <mxGeometry y="30" width="240" height="30" as="geometry"/>
                </mxCell>
                <mxCell id="62" value="lastName: VARCHAR(128) NULL" style="text;strokeColor=none;fillColor=none;align=left;verticalAlign=middle;spacingLeft=4;spacingRight=4;overflow=hidden;points=[[0,0.5],[1,0.5]];portConstraint=eastwest;rotatable=0;" vertex="1" parent="60">
                    <mxGeometry y="60" width="240" height="30" as="geometry"/>
                </mxCell>
                <mxCell id="63" value="firstName: VARCHAR(128) NULL" style="text;strokeColor=none;fillColor=none;align=left;verticalAlign=middle;spacingLeft=4;spacingRight=4;overflow=hidden;points=[[0,0.5],[1,0.5]];portConstraint=eastwest;rotatable=0;" vertex="1" parent="60">
                    <mxGeometry y="90" width="240" height="30" as="geometry"/>
                </mxCell>
                <mxCell id="64" value="patricity: VARCHAR(128) NULL" style="text;strokeColor=none;fillColor=none;align=left;verticalAlign=middle;spacingLeft=4;spacingRight=4;overflow=hidden;points=[[0,0.5],[1,0.5]];portConstraint=eastwest;rotatable=0;" vertex="1" parent="60">
                    <mxGeometry y="120" width="240" height="30" as="geometry"/>
                </mxCell>
                <mxCell id="65" value="phone: VARCHAR(11)  NOT NULL" style="text;strokeColor=none;fillColor=none;align=left;verticalAlign=middle;spacingLeft=4;spacingRight=4;overflow=hidden;points=[[0,0.5],[1,0.5]];portConstraint=eastwest;rotatable=0;" vertex="1" parent="60">
                    <mxGeometry y="150" width="240" height="30" as="geometry"/>
                </mxCell>
                <mxCell id="66" value="(v2) priorityAccountID: INT NULL" style="text;strokeColor=none;fillColor=none;align=left;verticalAlign=middle;spacingLeft=4;spacingRight=4;overflow=hidden;points=[[0,0.5],[1,0.5]];portConstraint=eastwest;rotatable=0;" vertex="1" parent="60">
                    <mxGeometry y="180" width="240" height="30" as="geometry"/>
                </mxCell>
                <mxCell id="67" value="(v2) isAdmin: BOOLEAN DEFAULT False" style="text;strokeColor=none;fillColor=none;align=left;verticalAlign=middle;spacingLeft=4;spacingRight=4;overflow=hidden;points=[[0,0.5],[1,0.5]];portConstraint=eastwest;rotatable=0;" vertex="1" parent="60">
                    <mxGeometry y="210" width="240" height="30" as="geometry"/>
                </mxCell>
                <mxCell id="68" value="Account" style="swimlane;fontStyle=0;childLayout=stackLayout;horizontal=1;startSize=30;horizontalStack=0;resizeParent=1;resizeParentMax=0;resizeLast=0;collapsible=1;marginBottom=0;" vertex="1" parent="1">
                    <mxGeometry x="360" y="-488" width="200" height="150" as="geometry"/>
                </mxCell>
                <mxCell id="69" value="id: UUID NOT NULL" style="text;strokeColor=none;fillColor=none;align=left;verticalAlign=middle;spacingLeft=4;spacingRight=4;overflow=hidden;points=[[0,0.5],[1,0.5]];portConstraint=eastwest;rotatable=0;" vertex="1" parent="68">
                    <mxGeometry y="30" width="200" height="30" as="geometry"/>
                </mxCell>
                <mxCell id="70" value="ownerUserId: INT NOT NULL" style="text;strokeColor=none;fillColor=none;align=left;verticalAlign=middle;spacingLeft=4;spacingRight=4;overflow=hidden;points=[[0,0.5],[1,0.5]];portConstraint=eastwest;rotatable=0;" vertex="1" parent="68">
                    <mxGeometry y="60" width="200" height="30" as="geometry"/>
                </mxCell>
                <mxCell id="71" value="amount: INT DEFAULT 0" style="text;strokeColor=none;fillColor=none;align=left;verticalAlign=middle;spacingLeft=4;spacingRight=4;overflow=hidden;points=[[0,0.5],[1,0.5]];portConstraint=eastwest;rotatable=0;" vertex="1" parent="68">
                    <mxGeometry y="90" width="200" height="30" as="geometry"/>
                </mxCell>
                <mxCell id="164" value="name: VARCHAR NULL" style="text;strokeColor=none;fillColor=none;align=left;verticalAlign=middle;spacingLeft=4;spacingRight=4;overflow=hidden;points=[[0,0.5],[1,0.5]];portConstraint=eastwest;rotatable=0;" vertex="1" parent="68">
                    <mxGeometry y="120" width="200" height="30" as="geometry"/>
                </mxCell>
                <mxCell id="72" value="" style="endArrow=ERzeroToMany;html=1;edgeStyle=elbowEdgeStyle;startArrow=ERone;startFill=0;endFill=0;" edge="1" parent="1" source="61" target="70">
                    <mxGeometry width="50" height="50" relative="1" as="geometry">
                        <mxPoint x="316" y="-313" as="sourcePoint"/>
                        <mxPoint x="366" y="-363" as="targetPoint"/>
                    </mxGeometry>
                </mxCell>
                <mxCell id="73" value="" style="endArrow=ERzeroToMany;html=1;edgeStyle=elbowEdgeStyle;startArrow=ERone;startFill=0;endFill=0;exitX=0;exitY=0.5;exitDx=0;exitDy=0;" edge="1" parent="1" source="66" target="69">
                    <mxGeometry width="50" height="50" relative="1" as="geometry">
                        <mxPoint x="336" y="-343" as="sourcePoint"/>
                        <mxPoint x="416" y="-313" as="targetPoint"/>
                        <Array as="points">
                            <mxPoint x="40" y="-338"/>
                        </Array>
                    </mxGeometry>
                </mxCell>
                <mxCell id="74" value="(v2) Category" style="swimlane;fontStyle=0;childLayout=stackLayout;horizontal=1;startSize=30;horizontalStack=0;resizeParent=1;resizeParentMax=0;resizeLast=0;collapsible=1;marginBottom=0;" vertex="1" parent="1">
                    <mxGeometry x="360" y="-99" width="200" height="120" as="geometry"/>
                </mxCell>
                <mxCell id="75" value="ID: UUID NOT NULL" style="text;strokeColor=none;fillColor=none;align=left;verticalAlign=middle;spacingLeft=4;spacingRight=4;overflow=hidden;points=[[0,0.5],[1,0.5]];portConstraint=eastwest;rotatable=0;" vertex="1" parent="74">
                    <mxGeometry y="30" width="200" height="30" as="geometry"/>
                </mxCell>
                <mxCell id="76" value="name: VARCHAR NOT NULL" style="text;strokeColor=none;fillColor=none;align=left;verticalAlign=middle;spacingLeft=4;spacingRight=4;overflow=hidden;points=[[0,0.5],[1,0.5]];portConstraint=eastwest;rotatable=0;" vertex="1" parent="74">
                    <mxGeometry y="60" width="200" height="30" as="geometry"/>
                </mxCell>
                <mxCell id="77" value="casbackPercent: INT DEFAULT 0" style="text;strokeColor=none;fillColor=none;align=left;verticalAlign=middle;spacingLeft=4;spacingRight=4;overflow=hidden;points=[[0,0.5],[1,0.5]];portConstraint=eastwest;rotatable=0;" vertex="1" parent="74">
                    <mxGeometry y="90" width="200" height="30" as="geometry"/>
                </mxCell>
                <mxCell id="78" value="" style="endArrow=ERzeroToOne;html=1;startArrow=ERzeroToMany;startFill=0;endFill=0;exitX=0;exitY=0.5;exitDx=0;exitDy=0;entryX=1;entryY=0.5;entryDx=0;entryDy=0;edgeStyle=elbowEdgeStyle;" edge="1" parent="1" source="87" target="75">
                    <mxGeometry width="50" height="50" relative="1" as="geometry">
                        <mxPoint x="538" y="-368" as="sourcePoint"/>
                        <mxPoint x="686" y="-358" as="targetPoint"/>
                    </mxGeometry>
                </mxCell>
                <mxCell id="79" value="Transfer" style="swimlane;fontStyle=0;childLayout=stackLayout;horizontal=1;startSize=30;horizontalStack=0;resizeParent=1;resizeParentMax=0;resizeLast=0;collapsible=1;marginBottom=0;" vertex="1" parent="1">
                    <mxGeometry x="630" y="-488" width="250" height="270" as="geometry"/>
                </mxCell>
                <mxCell id="80" value="ID: UUID NOT NULL" style="text;strokeColor=none;fillColor=none;align=left;verticalAlign=middle;spacingLeft=4;spacingRight=4;overflow=hidden;points=[[0,0.5],[1,0.5]];portConstraint=eastwest;rotatable=0;" vertex="1" parent="79">
                    <mxGeometry y="30" width="250" height="30" as="geometry"/>
                </mxCell>
                <mxCell id="81" value="status: VARCHAR DEFAULT &quot;CREATED&quot;" style="text;strokeColor=none;fillColor=none;align=left;verticalAlign=middle;spacingLeft=4;spacingRight=4;overflow=hidden;points=[[0,0.5],[1,0.5]];portConstraint=eastwest;rotatable=0;" vertex="1" parent="79">
                    <mxGeometry y="60" width="250" height="30" as="geometry"/>
                </mxCell>
                <mxCell id="82" value="createdAt: DATETIME NOT NULL" style="text;strokeColor=none;fillColor=none;align=left;verticalAlign=middle;spacingLeft=4;spacingRight=4;overflow=hidden;points=[[0,0.5],[1,0.5]];portConstraint=eastwest;rotatable=0;" vertex="1" parent="79">
                    <mxGeometry y="90" width="250" height="30" as="geometry"/>
                </mxCell>
                <mxCell id="83" value="senderAccountID: INT NOT NULL" style="text;strokeColor=none;fillColor=none;align=left;verticalAlign=middle;spacingLeft=4;spacingRight=4;overflow=hidden;points=[[0,0.5],[1,0.5]];portConstraint=eastwest;rotatable=0;" vertex="1" parent="79">
                    <mxGeometry y="120" width="250" height="30" as="geometry"/>
                </mxCell>
                <mxCell id="84" value="recipientAccountID: INT NOT NULL" style="text;strokeColor=none;fillColor=none;align=left;verticalAlign=middle;spacingLeft=4;spacingRight=4;overflow=hidden;points=[[0,0.5],[1,0.5]];portConstraint=eastwest;rotatable=0;" vertex="1" parent="79">
                    <mxGeometry y="150" width="250" height="30" as="geometry"/>
                </mxCell>
                <mxCell id="85" value="transferAmount: INT NOT NULL" style="text;strokeColor=none;fillColor=none;align=left;verticalAlign=middle;spacingLeft=4;spacingRight=4;overflow=hidden;points=[[0,0.5],[1,0.5]];portConstraint=eastwest;rotatable=0;" vertex="1" parent="79">
                    <mxGeometry y="180" width="250" height="30" as="geometry"/>
                </mxCell>
                <mxCell id="86" value="cashbackAmount: INT NOT NULL" style="text;strokeColor=none;fillColor=none;align=left;verticalAlign=middle;spacingLeft=4;spacingRight=4;overflow=hidden;points=[[0,0.5],[1,0.5]];portConstraint=eastwest;rotatable=0;" vertex="1" parent="79">
                    <mxGeometry y="210" width="250" height="30" as="geometry"/>
                </mxCell>
                <mxCell id="87" value="(v2) categoryID: INT NULL" style="text;strokeColor=none;fillColor=none;align=left;verticalAlign=middle;spacingLeft=4;spacingRight=4;overflow=hidden;points=[[0,0.5],[1,0.5]];portConstraint=eastwest;rotatable=0;" vertex="1" parent="79">
                    <mxGeometry y="240" width="250" height="30" as="geometry"/>
                </mxCell>
                <mxCell id="88" value="" style="endArrow=ERone;html=1;edgeStyle=elbowEdgeStyle;startArrow=ERoneToMany;startFill=0;endFill=0;exitX=0;exitY=0.5;exitDx=0;exitDy=0;entryX=1;entryY=0.12;entryDx=0;entryDy=0;entryPerimeter=0;" edge="1" parent="1" source="83" target="69">
                    <mxGeometry width="50" height="50" relative="1" as="geometry">
                        <mxPoint x="658" y="-703" as="sourcePoint"/>
                        <mxPoint x="550" y="-451" as="targetPoint"/>
                        <Array as="points">
                            <mxPoint x="600" y="-398"/>
                        </Array>
                    </mxGeometry>
                </mxCell>
                <mxCell id="89" value="" style="endArrow=ERone;html=1;edgeStyle=elbowEdgeStyle;startArrow=ERoneToMany;startFill=0;endFill=0;exitX=0;exitY=0.5;exitDx=0;exitDy=0;" edge="1" parent="1" source="84" target="69">
                    <mxGeometry width="50" height="50" relative="1" as="geometry">
                        <mxPoint x="576" y="-658" as="sourcePoint"/>
                        <mxPoint x="548" y="-433" as="targetPoint"/>
                        <Array as="points">
                            <mxPoint x="590" y="-378"/>
                        </Array>
                    </mxGeometry>
                </mxCell>
                <mxCell id="90" value="&lt;font style=&quot;font-size: 17px&quot;&gt;Псевдо-инфологическая схема БД&lt;/font&gt;" style="text;strokeColor=none;fillColor=none;html=1;fontSize=24;fontStyle=1;verticalAlign=middle;align=center;" vertex="1" parent="1">
                    <mxGeometry x="40" y="-1160" width="310" height="40" as="geometry"/>
                </mxCell>
                <mxCell id="91" value="" style="endArrow=none;html=1;" edge="1" parent="1">
                    <mxGeometry width="50" height="50" relative="1" as="geometry">
                        <mxPoint x="40" y="-568" as="sourcePoint"/>
                        <mxPoint x="920" y="-568" as="targetPoint"/>
                    </mxGeometry>
                </mxCell>
                <mxCell id="92" value="&lt;font style=&quot;font-size: 17px&quot;&gt;Физическая схема БД&lt;/font&gt;" style="text;strokeColor=none;fillColor=none;html=1;fontSize=24;fontStyle=1;verticalAlign=middle;align=center;" vertex="1" parent="1">
                    <mxGeometry x="40" y="-548" width="200" height="40" as="geometry"/>
                </mxCell>
                <mxCell id="93" value="" style="endArrow=none;html=1;" edge="1" parent="1">
                    <mxGeometry width="50" height="50" relative="1" as="geometry">
                        <mxPoint x="920" y="-1160" as="sourcePoint"/>
                        <mxPoint x="920" y="40" as="targetPoint"/>
                    </mxGeometry>
                </mxCell>
                <mxCell id="95" value="&lt;font style=&quot;font-size: 12px&quot;&gt;(v2) &lt;br&gt;Администратор&lt;/font&gt;" style="shape=umlActor;verticalLabelPosition=bottom;verticalAlign=top;html=1;outlineConnect=0;fontSize=17;" vertex="1" parent="1">
                    <mxGeometry x="960" y="-600" width="30" height="60" as="geometry"/>
                </mxCell>
                <mxCell id="97" value="&lt;font style=&quot;font-size: 12px&quot;&gt;Владелец&lt;br&gt;счёта&lt;/font&gt;" style="shape=umlActor;verticalLabelPosition=bottom;verticalAlign=top;html=1;outlineConnect=0;fontSize=17;" vertex="1" parent="1">
                    <mxGeometry x="1023" y="-975" width="30" height="60" as="geometry"/>
                </mxCell>
                <mxCell id="100" value="&lt;font style=&quot;font-size: 12px&quot;&gt;Просмотреть список&lt;br&gt;своих счетов&lt;/font&gt;" style="ellipse;whiteSpace=wrap;html=1;fontSize=17;fillColor=#6a00ff;fontColor=#ffffff;strokeColor=#3700CC;" vertex="1" parent="1">
                    <mxGeometry x="1239" y="-1119" width="182" height="40" as="geometry"/>
                </mxCell>
                <mxCell id="102" value="&lt;font style=&quot;font-size: 12px&quot;&gt;Просмотреть список пользователей&lt;/font&gt;" style="ellipse;whiteSpace=wrap;html=1;fontSize=17;fillColor=#f0a30a;fontColor=#000000;strokeColor=#BD7000;" vertex="1" parent="1">
                    <mxGeometry x="1243" y="-673.5" width="182" height="45" as="geometry"/>
                </mxCell>
                <mxCell id="105" value="&lt;font style=&quot;font-size: 12px&quot;&gt;Создать нового пользователя&lt;/font&gt;" style="ellipse;whiteSpace=wrap;html=1;fontSize=17;fillColor=#f0a30a;fontColor=#000000;strokeColor=#BD7000;" vertex="1" parent="1">
                    <mxGeometry x="1239" y="-621" width="182" height="45" as="geometry"/>
                </mxCell>
                <mxCell id="106" value="" style="endArrow=none;html=1;fontSize=12;" edge="1" parent="1" source="95" target="102">
                    <mxGeometry width="50" height="50" relative="1" as="geometry">
                        <mxPoint x="1160" y="-866" as="sourcePoint"/>
                        <mxPoint x="1170" y="-896" as="targetPoint"/>
                    </mxGeometry>
                </mxCell>
                <mxCell id="107" value="" style="endArrow=none;html=1;fontSize=12;" edge="1" parent="1" source="95" target="105">
                    <mxGeometry width="50" height="50" relative="1" as="geometry">
                        <mxPoint x="1150" y="-831" as="sourcePoint"/>
                        <mxPoint x="1160" y="-861" as="targetPoint"/>
                    </mxGeometry>
                </mxCell>
                <mxCell id="109" value="&lt;font style=&quot;font-size: 12px&quot;&gt;Создать новый счёт&lt;/font&gt;" style="ellipse;whiteSpace=wrap;html=1;fontSize=17;fillColor=#6a00ff;fontColor=#ffffff;strokeColor=#3700CC;" vertex="1" parent="1">
                    <mxGeometry x="1239" y="-1065" width="182" height="40" as="geometry"/>
                </mxCell>
                <mxCell id="110" value="&lt;font style=&quot;font-size: 12px&quot;&gt;Создать новую категорию&lt;/font&gt;" style="ellipse;whiteSpace=wrap;html=1;fontSize=17;fillColor=#1ba1e2;fontColor=#ffffff;strokeColor=#006EAF;" vertex="1" parent="1">
                    <mxGeometry x="1239" y="-561" width="182" height="45" as="geometry"/>
                </mxCell>
                <mxCell id="111" value="&lt;font style=&quot;font-size: 12px&quot;&gt;Просмотреть список категорий&lt;/font&gt;" style="ellipse;whiteSpace=wrap;html=1;fontSize=17;fillColor=#6a00ff;fontColor=#ffffff;strokeColor=#3700CC;" vertex="1" parent="1">
                    <mxGeometry x="1243" y="-865" width="182" height="45" as="geometry"/>
                </mxCell>
                <mxCell id="112" value="&lt;font style=&quot;font-size: 12px&quot;&gt;Изменить процент&lt;br&gt;кэшбека категории&lt;/font&gt;" style="ellipse;whiteSpace=wrap;html=1;fontSize=17;fillColor=#1ba1e2;strokeColor=#006EAF;fontColor=#ffffff;" vertex="1" parent="1">
                    <mxGeometry x="1239" y="-501" width="182" height="45" as="geometry"/>
                </mxCell>
                <mxCell id="113" value="&lt;font style=&quot;font-size: 12px&quot;&gt;Перевести деньги между разными счетами&lt;/font&gt;" style="ellipse;whiteSpace=wrap;html=1;fontSize=17;fillColor=#6a00ff;fontColor=#ffffff;strokeColor=#3700CC;" vertex="1" parent="1">
                    <mxGeometry x="1239" y="-1015" width="182" height="40" as="geometry"/>
                </mxCell>
                <mxCell id="114" value="" style="endArrow=none;html=1;fontSize=12;" edge="1" parent="1" source="97" target="109">
                    <mxGeometry width="50" height="50" relative="1" as="geometry">
                        <mxPoint x="1140" y="-965" as="sourcePoint"/>
                        <mxPoint x="1190" y="-1015" as="targetPoint"/>
                    </mxGeometry>
                </mxCell>
                <mxCell id="115" value="" style="endArrow=none;html=1;fontSize=12;" edge="1" parent="1" source="97" target="111">
                    <mxGeometry width="50" height="50" relative="1" as="geometry">
                        <mxPoint x="1170" y="-794" as="sourcePoint"/>
                        <mxPoint x="1180" y="-824" as="targetPoint"/>
                    </mxGeometry>
                </mxCell>
                <mxCell id="116" value="" style="endArrow=none;html=1;fontSize=12;" edge="1" parent="1" source="95" target="110">
                    <mxGeometry width="50" height="50" relative="1" as="geometry">
                        <mxPoint x="1150" y="-696" as="sourcePoint"/>
                        <mxPoint x="1160" y="-726" as="targetPoint"/>
                    </mxGeometry>
                </mxCell>
                <mxCell id="117" value="" style="endArrow=none;html=1;fontSize=12;" edge="1" parent="1" source="97" target="113">
                    <mxGeometry width="50" height="50" relative="1" as="geometry">
                        <mxPoint x="1140" y="-980" as="sourcePoint"/>
                        <mxPoint x="1150" y="-1010" as="targetPoint"/>
                    </mxGeometry>
                </mxCell>
                <mxCell id="118" value="" style="endArrow=none;html=1;fontSize=12;" edge="1" parent="1" source="95" target="112">
                    <mxGeometry width="50" height="50" relative="1" as="geometry">
                        <mxPoint x="1160" y="-636" as="sourcePoint"/>
                        <mxPoint x="1180" y="-666" as="targetPoint"/>
                    </mxGeometry>
                </mxCell>
                <mxCell id="119" value="" style="edgeStyle=orthogonalEdgeStyle;html=1;endArrow=block;endFill=0;endSize=12;verticalAlign=bottom;fontSize=12;exitX=0.5;exitY=0;exitDx=0;exitDy=0;exitPerimeter=0;entryX=0;entryY=0.3333333333333333;entryDx=0;entryDy=0;entryPerimeter=0;" edge="1" parent="1" source="95" target="97">
                    <mxGeometry width="160" relative="1" as="geometry">
                        <mxPoint x="1000" y="-855" as="sourcePoint"/>
                        <mxPoint x="1160" y="-855" as="targetPoint"/>
                    </mxGeometry>
                </mxCell>
                <mxCell id="122" value="&lt;font style=&quot;font-size: 12px&quot;&gt;Пополнять счёт&lt;/font&gt;" style="ellipse;whiteSpace=wrap;html=1;fontSize=17;fillColor=#6a00ff;fontColor=#ffffff;strokeColor=#3700CC;" vertex="1" parent="1">
                    <mxGeometry x="1243" y="-965" width="182" height="40" as="geometry"/>
                </mxCell>
                <mxCell id="123" value="&lt;font style=&quot;font-size: 12px&quot;&gt;Снимать со счёта&lt;/font&gt;" style="ellipse;whiteSpace=wrap;html=1;fontSize=17;fillColor=#6a00ff;fontColor=#ffffff;strokeColor=#3700CC;" vertex="1" parent="1">
                    <mxGeometry x="1239" y="-915" width="182" height="40" as="geometry"/>
                </mxCell>
                <mxCell id="124" value="" style="endArrow=none;html=1;fontSize=12;" edge="1" parent="1" source="97" target="122">
                    <mxGeometry width="50" height="50" relative="1" as="geometry">
                        <mxPoint x="1140" y="-895" as="sourcePoint"/>
                        <mxPoint x="1190" y="-945" as="targetPoint"/>
                    </mxGeometry>
                </mxCell>
                <mxCell id="125" value="" style="endArrow=none;html=1;fontSize=12;" edge="1" parent="1" source="97" target="123">
                    <mxGeometry width="50" height="50" relative="1" as="geometry">
                        <mxPoint x="1130" y="-845" as="sourcePoint"/>
                        <mxPoint x="1180" y="-895" as="targetPoint"/>
                    </mxGeometry>
                </mxCell>
                <mxCell id="126" value="&lt;span style=&quot;font-size: 12px&quot;&gt;Указать категорию перевода&lt;/span&gt;" style="ellipse;whiteSpace=wrap;html=1;fontSize=17;fillColor=#1ba1e2;fontColor=#ffffff;strokeColor=#006EAF;" vertex="1" parent="1">
                    <mxGeometry x="1780" y="-1015" width="182" height="40" as="geometry"/>
                </mxCell>
                <mxCell id="128" value="Если не указана категория, кэшбек по умолчанию будет равен нулю" style="shape=note;size=15;spacingLeft=5;align=left;whiteSpace=wrap;labelBackgroundColor=none;fontSize=12;" vertex="1" parent="1">
                    <mxGeometry x="1730" y="-1110" width="230" height="50" as="geometry"/>
                </mxCell>
                <mxCell id="129" value="&amp;lt;&amp;lt;extend&amp;gt;&amp;gt;" style="align=right;html=1;verticalAlign=bottom;rounded=0;labelBackgroundColor=none;endArrow=open;endSize=12;dashed=1;fontSize=12;" edge="1" parent="1" source="126" target="155">
                    <mxGeometry x="-0.6492" y="27" relative="1" as="geometry">
                        <mxPoint x="1740" y="-1004" as="targetPoint"/>
                        <mxPoint x="1813.1235955119796" y="-1023.5662921365279" as="sourcePoint"/>
                        <mxPoint as="offset"/>
                    </mxGeometry>
                </mxCell>
                <mxCell id="131" value="Операция с наличными" style="swimlane;fontStyle=0;childLayout=stackLayout;horizontal=1;startSize=30;horizontalStack=0;resizeParent=1;resizeParentMax=0;resizeLast=0;collapsible=1;marginBottom=0;" vertex="1" parent="1">
                    <mxGeometry x="360" y="-914" width="180" height="180" as="geometry"/>
                </mxCell>
                <mxCell id="132" value="ID операции" style="text;strokeColor=none;fillColor=none;align=left;verticalAlign=middle;spacingLeft=4;spacingRight=4;overflow=hidden;points=[[0,0.5],[1,0.5]];portConstraint=eastwest;rotatable=0;" vertex="1" parent="131">
                    <mxGeometry y="30" width="180" height="30" as="geometry"/>
                </mxCell>
                <mxCell id="133" value="ID счёта" style="text;strokeColor=none;fillColor=none;align=left;verticalAlign=middle;spacingLeft=4;spacingRight=4;overflow=hidden;points=[[0,0.5],[1,0.5]];portConstraint=eastwest;rotatable=0;" vertex="1" parent="131">
                    <mxGeometry y="60" width="180" height="30" as="geometry"/>
                </mxCell>
                <mxCell id="134" value="Сумма изменения" style="text;strokeColor=none;fillColor=none;align=left;verticalAlign=middle;spacingLeft=4;spacingRight=4;overflow=hidden;points=[[0,0.5],[1,0.5]];portConstraint=eastwest;rotatable=0;" vertex="1" parent="131">
                    <mxGeometry y="90" width="180" height="30" as="geometry"/>
                </mxCell>
                <mxCell id="135" value="Тип операции" style="text;strokeColor=none;fillColor=none;align=left;verticalAlign=middle;spacingLeft=4;spacingRight=4;overflow=hidden;points=[[0,0.5],[1,0.5]];portConstraint=eastwest;rotatable=0;" vertex="1" parent="131">
                    <mxGeometry y="120" width="180" height="30" as="geometry"/>
                </mxCell>
                <mxCell id="136" value="Дата и время создания" style="text;strokeColor=none;fillColor=none;align=left;verticalAlign=middle;spacingLeft=4;spacingRight=4;overflow=hidden;points=[[0,0.5],[1,0.5]];portConstraint=eastwest;rotatable=0;" vertex="1" parent="131">
                    <mxGeometry y="150" width="180" height="30" as="geometry"/>
                </mxCell>
                <mxCell id="137" value="" style="endArrow=ERone;html=1;edgeStyle=elbowEdgeStyle;startArrow=ERoneToMany;startFill=0;endFill=0;entryX=1.001;entryY=0.873;entryDx=0;entryDy=0;entryPerimeter=0;" edge="1" parent="1">
                    <mxGeometry width="50" height="50" relative="1" as="geometry">
                        <mxPoint x="540" y="-876" as="sourcePoint"/>
                        <mxPoint x="538.18" y="-1044.81" as="targetPoint"/>
                        <Array as="points">
                            <mxPoint x="560" y="-960"/>
                        </Array>
                    </mxGeometry>
                </mxCell>
                <mxCell id="94" value="&lt;font style=&quot;font-size: 17px&quot;&gt;Use-case диаграмма (диаграмма прецедентов UML)&lt;br&gt;&lt;/font&gt;" style="text;strokeColor=none;fillColor=none;html=1;fontSize=24;fontStyle=1;verticalAlign=middle;align=center;" vertex="1" parent="1">
                    <mxGeometry x="928" y="-1169" width="450" height="40" as="geometry"/>
                </mxCell>
                <mxCell id="139" value="CashOperation" style="swimlane;fontStyle=0;childLayout=stackLayout;horizontal=1;startSize=30;horizontalStack=0;resizeParent=1;resizeParentMax=0;resizeLast=0;collapsible=1;marginBottom=0;" vertex="1" parent="1">
                    <mxGeometry x="360" y="-309" width="200" height="180" as="geometry"/>
                </mxCell>
                <mxCell id="140" value="id: UUID NOT NULL" style="text;strokeColor=none;fillColor=none;align=left;verticalAlign=middle;spacingLeft=4;spacingRight=4;overflow=hidden;points=[[0,0.5],[1,0.5]];portConstraint=eastwest;rotatable=0;" vertex="1" parent="139">
                    <mxGeometry y="30" width="200" height="30" as="geometry"/>
                </mxCell>
                <mxCell id="141" value="accountId: INT NOT NULL" style="text;strokeColor=none;fillColor=none;align=left;verticalAlign=middle;spacingLeft=4;spacingRight=4;overflow=hidden;points=[[0,0.5],[1,0.5]];portConstraint=eastwest;rotatable=0;" vertex="1" parent="139">
                    <mxGeometry y="60" width="200" height="30" as="geometry"/>
                </mxCell>
                <mxCell id="142" value="amount: INT DEFAULT 0" style="text;strokeColor=none;fillColor=none;align=left;verticalAlign=middle;spacingLeft=4;spacingRight=4;overflow=hidden;points=[[0,0.5],[1,0.5]];portConstraint=eastwest;rotatable=0;" vertex="1" parent="139">
                    <mxGeometry y="90" width="200" height="30" as="geometry"/>
                </mxCell>
                <mxCell id="143" value="opType: VARCHAR NOT NULL" style="text;strokeColor=none;fillColor=none;align=left;verticalAlign=middle;spacingLeft=4;spacingRight=4;overflow=hidden;points=[[0,0.5],[1,0.5]];portConstraint=eastwest;rotatable=0;" vertex="1" parent="139">
                    <mxGeometry y="120" width="200" height="30" as="geometry"/>
                </mxCell>
                <mxCell id="144" value="crearedAt: DATETIME NOT NULL" style="text;strokeColor=none;fillColor=none;align=left;verticalAlign=middle;spacingLeft=4;spacingRight=4;overflow=hidden;points=[[0,0.5],[1,0.5]];portConstraint=eastwest;rotatable=0;" vertex="1" parent="139">
                    <mxGeometry y="150" width="200" height="30" as="geometry"/>
                </mxCell>
                <mxCell id="145" value="" style="endArrow=none;html=1;fontSize=12;" edge="1" parent="1" source="97" target="100">
                    <mxGeometry width="50" height="50" relative="1" as="geometry">
                        <mxPoint x="1080" y="-962.208612440309" as="sourcePoint"/>
                        <mxPoint x="1283.5361210599804" y="-1019.3155891833278" as="targetPoint"/>
                    </mxGeometry>
                </mxCell>
                <mxCell id="146" value="" style="endArrow=ERone;html=1;edgeStyle=elbowEdgeStyle;startArrow=ERoneToMany;startFill=0;endFill=0;" edge="1" parent="1" source="141">
                    <mxGeometry width="50" height="50" relative="1" as="geometry">
                        <mxPoint x="550" y="-272" as="sourcePoint"/>
                        <mxPoint x="560" y="-432" as="targetPoint"/>
                        <Array as="points">
                            <mxPoint x="580" y="-338"/>
                        </Array>
                    </mxGeometry>
                </mxCell>
                <mxCell id="147" value="Версия 1" style="rounded=0;whiteSpace=wrap;html=1;labelBackgroundColor=none;fontSize=12;fillColor=#6a00ff;fontColor=#ffffff;strokeColor=#3700CC;" vertex="1" parent="1">
                    <mxGeometry x="1702" y="-737.5" width="120" height="60" as="geometry"/>
                </mxCell>
                <mxCell id="148" value="Версия 2" style="rounded=0;whiteSpace=wrap;html=1;labelBackgroundColor=none;fontSize=12;fillColor=#1ba1e2;fontColor=#ffffff;strokeColor=#006EAF;" vertex="1" parent="1">
                    <mxGeometry x="1702" y="-658" width="120" height="60" as="geometry"/>
                </mxCell>
                <mxCell id="149" value="Дополнительный логичный функционал" style="rounded=0;whiteSpace=wrap;html=1;labelBackgroundColor=none;fontSize=12;fillColor=#f0a30a;fontColor=#000000;strokeColor=#BD7000;" vertex="1" parent="1">
                    <mxGeometry x="1702" y="-580" width="120" height="60" as="geometry"/>
                </mxCell>
                <mxCell id="151" value="&lt;span style=&quot;font-size: 12px&quot;&gt;Выбор приоритетного счёта&lt;/span&gt;" style="ellipse;whiteSpace=wrap;html=1;fontSize=17;fillColor=#f0a30a;fontColor=#000000;strokeColor=#BD7000;" vertex="1" parent="1">
                    <mxGeometry x="1239" y="-810" width="182" height="45" as="geometry"/>
                </mxCell>
                <mxCell id="152" value="" style="endArrow=none;html=1;fontSize=12;" edge="1" parent="1" source="97" target="151">
                    <mxGeometry width="50" height="50" relative="1" as="geometry">
                        <mxPoint x="1080" y="-951.24816176258" as="sourcePoint"/>
                        <mxPoint x="1300.0445913253843" y="-852.2011293860329" as="targetPoint"/>
                    </mxGeometry>
                </mxCell>
                <mxCell id="153" value="&lt;font style=&quot;font-size: 12px&quot;&gt;Перевести деньги по идентификатору счёта&amp;nbsp;&lt;/font&gt;" style="ellipse;whiteSpace=wrap;html=1;fontSize=17;fillColor=#6a00ff;fontColor=#ffffff;strokeColor=#3700CC;" vertex="1" parent="1">
                    <mxGeometry x="1520" y="-1060" width="182" height="40" as="geometry"/>
                </mxCell>
                <mxCell id="155" value="&lt;span style=&quot;color: rgb(255 , 255 , 255) ; font-size: 12px&quot;&gt;Перевести деньги по номеру телефона&lt;/span&gt;" style="ellipse;whiteSpace=wrap;html=1;fontSize=17;fillColor=#f0a30a;fontColor=#000000;strokeColor=#BD7000;" vertex="1" parent="1">
                    <mxGeometry x="1520" y="-960" width="182" height="45" as="geometry"/>
                </mxCell>
                <mxCell id="156" value="&amp;lt;&amp;lt;include&amp;gt;&amp;gt;" style="edgeStyle=none;html=1;endArrow=open;verticalAlign=bottom;dashed=1;labelBackgroundColor=none;fontSize=12;" edge="1" parent="1" source="113" target="155">
                    <mxGeometry width="160" relative="1" as="geometry">
                        <mxPoint x="1450" y="-920" as="sourcePoint"/>
                        <mxPoint x="1610" y="-920" as="targetPoint"/>
                    </mxGeometry>
                </mxCell>
                <mxCell id="157" value="&amp;lt;&amp;lt;include&amp;gt;&amp;gt;" style="edgeStyle=none;html=1;endArrow=open;verticalAlign=bottom;dashed=1;labelBackgroundColor=none;fontSize=12;" edge="1" parent="1" source="113" target="153">
                    <mxGeometry width="160" relative="1" as="geometry">
                        <mxPoint x="1406.9141263422105" y="-971.4456000486292" as="sourcePoint"/>
                        <mxPoint x="1550.840620832857" y="-941.8292758992623" as="targetPoint"/>
                    </mxGeometry>
                </mxCell>
                <mxCell id="159" value="" style="endArrow=none;dashed=1;html=1;fontSize=12;" edge="1" parent="1" target="128">
                    <mxGeometry width="50" height="50" relative="1" as="geometry">
                        <mxPoint x="1760" y="-1040" as="sourcePoint"/>
                        <mxPoint x="1896" y="-1060" as="targetPoint"/>
                    </mxGeometry>
                </mxCell>
                <mxCell id="160" value="&amp;lt;&amp;lt;extend&amp;gt;&amp;gt;" style="align=right;html=1;verticalAlign=bottom;rounded=0;labelBackgroundColor=none;endArrow=open;endSize=12;dashed=1;fontSize=12;" edge="1" parent="1" source="126" target="153">
                    <mxGeometry x="-0.8072" y="-11" relative="1" as="geometry">
                        <mxPoint x="1688.9331482864795" y="-942.4707145911992" as="targetPoint"/>
                        <mxPoint x="1816.6442193559742" y="-970.8598566472282" as="sourcePoint"/>
                        <mxPoint as="offset"/>
                    </mxGeometry>
                </mxCell>
                <mxCell id="161" value="" style="endArrow=none;dashed=1;html=1;fontSize=12;" edge="1" parent="1" source="162">
                    <mxGeometry width="50" height="50" relative="1" as="geometry">
                        <mxPoint x="1810" y="-900" as="sourcePoint"/>
                        <mxPoint x="1760" y="-950" as="targetPoint"/>
                    </mxGeometry>
                </mxCell>
                <mxCell id="162" value="Если не указана категория, кэшбек по умолчанию будет равен нулю" style="shape=note;size=15;spacingLeft=5;align=left;whiteSpace=wrap;labelBackgroundColor=none;fontSize=12;" vertex="1" parent="1">
                    <mxGeometry x="1730" y="-925" width="230" height="50" as="geometry"/>
                </mxCell>
            </root>
        </mxGraphModel>
    </diagram>
</mxfile>